<svg width="148" height="24" viewBox="0 0 148 24" fill="none" xmlns="http://www.w3.org/2000/svg">
<path d="M24.52 23L24.488 0.599998H21.064L12.328 15.448L3.432 0.599998H0.00800014V23H3.976V8.344L11.336 20.44H13.192L20.552 8.152L20.584 23H24.52ZM46.1865 23H51.0505L41.0665 10.616L50.4745 0.599998H45.8025L34.7305 12.088V0.599998H30.5705V23H34.7305V17.272L38.2825 13.624L46.1865 23ZM60.3583 23.32C66.5023 23.32 69.4143 20.248 69.4143 16.664C69.4143 8.44 56.1343 11.544 56.1343 6.776C56.1343 5.08 57.5423 3.736 60.9983 3.736C62.9503 3.736 65.1583 4.312 67.1743 5.496L68.4862 2.264C66.5343 0.983999 63.7183 0.279999 61.0303 0.279999C54.8863 0.279999 52.0063 3.352 52.0063 6.968C52.0063 15.288 65.3183 12.12 65.3183 16.952C65.3183 18.616 63.8463 19.864 60.3583 19.864C57.6063 19.864 54.7583 18.84 52.9663 17.4L51.5263 20.632C53.3823 22.232 56.8703 23.32 60.3583 23.32Z" fill="white"/>
<path d="M81.896 20.08C84.664 20.08 85.928 18.704 85.928 17.12C85.928 13.056 78.936 15.04 78.936 11.68C78.936 10.448 79.912 9.44 82.088 9.44C83.096 9.44 84.232 9.744 85.16 10.384L85.464 9.728C84.6 9.104 83.32 8.72 82.088 8.72C79.336 8.72 78.12 10.112 78.12 11.696C78.12 15.824 85.112 13.808 85.112 17.168C85.112 18.384 84.12 19.36 81.88 19.36C80.376 19.36 78.952 18.752 78.184 17.952L77.816 18.56C78.632 19.456 80.232 20.08 81.896 20.08ZM88.846 9.616C89.214 9.616 89.502 9.328 89.502 8.96C89.502 8.608 89.214 8.32 88.846 8.32C88.478 8.32 88.19 8.624 88.19 8.976C88.19 9.328 88.478 9.616 88.846 9.616ZM88.446 20H89.246V11.648H88.446V20ZM94.7299 20.064C96.8579 20.064 98.0259 19.136 98.0259 17.776C98.0259 14.592 92.4899 16.368 92.4899 13.856C92.4899 12.96 93.2099 12.288 94.8419 12.288C95.7379 12.288 96.6499 12.528 97.3539 13.04L97.7219 12.4C97.0659 11.904 95.9139 11.584 94.8579 11.584C92.7459 11.584 91.6899 12.608 91.6899 13.872C91.6899 17.152 97.2259 15.36 97.2259 17.792C97.2259 18.736 96.5219 19.36 94.7619 19.36C93.5299 19.36 92.3939 18.896 91.7539 18.352L91.3859 18.992C92.0419 19.6 93.3539 20.064 94.7299 20.064ZM104.067 18.912C103.731 19.216 103.266 19.376 102.771 19.376C101.747 19.376 101.219 18.784 101.219 17.712V12.336H103.875V11.648H101.219V9.824H100.419V11.648H98.8825V12.336H100.419V17.792C100.419 19.2 101.219 20.064 102.691 20.064C103.315 20.064 103.987 19.872 104.403 19.472L104.067 18.912ZM113.409 15.792C113.409 13.312 111.713 11.584 109.425 11.584C107.137 11.584 105.425 13.344 105.425 15.824C105.425 18.304 107.201 20.064 109.729 20.064C110.993 20.064 112.145 19.6 112.881 18.704L112.417 18.176C111.777 18.96 110.801 19.344 109.745 19.344C107.745 19.344 106.289 18 106.209 16.016H113.393C113.393 15.936 113.409 15.856 113.409 15.792ZM109.425 12.288C111.201 12.288 112.513 13.584 112.625 15.392H106.225C106.353 13.568 107.649 12.288 109.425 12.288ZM126.284 11.584C124.668 11.584 123.452 12.384 122.908 13.6C122.46 12.272 121.356 11.584 119.852 11.584C118.332 11.584 117.196 12.272 116.652 13.44V11.648H115.884V20H116.684V15.552C116.684 13.568 117.852 12.304 119.74 12.304C121.372 12.304 122.348 13.296 122.348 15.184V20H123.148V15.552C123.148 13.568 124.316 12.304 126.204 12.304C127.836 12.304 128.812 13.296 128.812 15.184V20H129.612V15.12C129.612 12.784 128.3 11.584 126.284 11.584ZM135.731 11.584C134.435 11.584 133.219 12.032 132.387 12.768L132.787 13.344C133.475 12.72 134.515 12.288 135.667 12.288C137.299 12.288 138.147 13.12 138.147 14.672V15.344H135.283C132.963 15.344 132.163 16.416 132.163 17.68C132.163 19.104 133.299 20.064 135.171 20.064C136.627 20.064 137.651 19.472 138.179 18.512V20H138.947V14.704C138.947 12.64 137.795 11.584 135.731 11.584ZM135.283 19.408C133.811 19.408 132.963 18.736 132.963 17.648C132.963 16.688 133.571 15.968 135.299 15.968H138.147V17.536C137.667 18.736 136.691 19.408 135.283 19.408ZM144.355 20.064C146.483 20.064 147.651 19.136 147.651 17.776C147.651 14.592 142.115 16.368 142.115 13.856C142.115 12.96 142.835 12.288 144.467 12.288C145.363 12.288 146.275 12.528 146.979 13.04L147.347 12.4C146.691 11.904 145.539 11.584 144.483 11.584C142.371 11.584 141.315 12.608 141.315 13.872C141.315 17.152 146.851 15.36 146.851 17.792C146.851 18.736 146.147 19.36 144.387 19.36C143.155 19.36 142.019 18.896 141.379 18.352L141.011 18.992C141.667 19.6 142.979 20.064 144.355 20.064Z" fill="white"/>
</svg>
